  <svg
    version="1.0"
    xmlns="http://www.w3.org/2000/svg"
    width="1em"
    height="1em"
    viewBox="0 0 300.000000 300.000000"
    preserveAspectRatio="xMidYMid meet"
    stroke="rgb(145, 106, 253)"
    fill="rgb(145, 106, 253)"
  >
    <g transform="translate(0.000000,300.000000) scale(0.100000,-0.100000)">
      <path d="M1155 2949 c-18 -5 -73 -54 -140 -122 -109 -113 -112 -115 -245 -180 -164 -79 -167 -83 -180 -235 -12 -132 -34 -200 -105 -317 -84 -140 -84 -161 -5 -295 68 -114 88 -173 101 -288 5 -53 12 -112 15 -130 8 -52 55 -97 142 -132 127 -52 162 -77 277 -195 132 -135 144 -140 277 -104 115 30 234 31 360 0 143 -34 153 -31 268 91 112 118 152 147 273 199 140 60 155 81 168 237 10 129 35 206 100 308 27 43 55 96 61 117 16 53 -1 114 -55 197 -74 113 -85 148 -97 294 -8 93 -13 115 -37 154 -30 49 -80 81 -178 114 -76 26 -137 71 -212 157 -96 110 -126 131 -182 131 -25 0 -83 -9 -129 -20 -110 -26 -204 -25 -332 5 -58 14 -107 24 -110 24 -3 0 -18 -5 -35 -10z m550 -293 c114 -39 208 -98 296 -185 87 -87 146 -181 186 -296 25 -73 27 -92 28 -230 0 -143 -1 -154 -31 -238 -40 -111 -83 -182 -162 -268 -142 -154 -333 -238 -540 -239 -124 0 -222 23 -340 81 -87 43 -116 63 -185 132 -152 152 -227 328 -227 537 0 360 264 668 630 734 14 3 79 3 145 2 99 -3 134 -8 200 -30z" />{" "}
      <path d="M1330 2504 c-199 -52 -364 -219 -415 -419 -19 -76 -19 -205 0 -280 54 -204 217 -367 422 -420 67 -18 190 -19 265 -4 195 40 381 218 433 415 19 70 21 210 5 279 -49 201 -221 379 -416 429 -76 20 -220 20 -294 0z m173 -233 c9 -27 35 -76 58 -110 62 -93 132 -145 279 -208 24 -10 24 -11 5 -18 -158 -56 -300 -189 -344 -323 -8 -24 -19 -41 -24 -39 -5 1 -20 29 -33 61 -29 71 -88 151 -146 199 -44 36 -161 97 -186 97 -29 0 -4 22 52 45 76 31 126 67 186 132 42 46 94 136 114 196 9 29 20 20 39 -32z" />{" "}
      <path d="M921 972 c-22 -41 -281 -644 -287 -667 -4 -17 -1 -27 9 -31 8 -3 89 15 179 40 151 43 164 45 176 29 6 -9 44 -79 83 -155 50 -96 76 -138 88 -138 21 0 23 5 225 465 l154 350 -65 3 c-42 2 -95 -5 -150 -19 -166 -41 -258 -18 -352 88 -46 51 -50 54 -60 35z" />{" "}
      <path d="M1974 936 c-30 -37 -59 -62 -98 -81 -52 -26 -64 -27 -144 -23 l-88 5 -54 -130 c-30 -72 -54 -135 -52 -141 11 -36 223 -511 232 -520 17 -17 44 22 122 177 55 110 72 137 86 133 91 -29 307 -86 322 -86 14 0 20 7 20 21 0 12 -61 161 -136 332 -75 172 -141 324 -146 340 -6 15 -13 27 -16 27 -4 0 -26 -24 -48 -54z" />{" "}
    </g>
  </svg>